<?xml version="1.0" encoding="utf-8"?>
<!-- Generator: Adobe Illustrator 17.0.0, SVG Export Plug-In . SVG Version: 6.00 Build 0)  -->
<!DOCTYPE svg PUBLIC "-//W3C//DTD SVG 1.1//EN" "http://www.w3.org/Graphics/SVG/1.1/DTD/svg11.dtd">
<svg version="1.1" id="Layer_1" xmlns="http://www.w3.org/2000/svg" xmlns:xlink="http://www.w3.org/1999/xlink" x="0px" y="0px"
	 width="310.613px" height="122.797px" viewBox="0 0 310.613 122.797" enable-background="new 0 0 310.613 122.797"
	 xml:space="preserve">
<rect x="-834.842" y="-1464.272" fill="#E8E1B7" width="756" height="140.947"/>
<rect x="-804.842" y="-1434.272" fill="none" width="557.268" height="110.947"/>
<text transform="matrix(1 0 0 1 -804.8423 -1423.5842)"><tspan x="0" y="0" fill="#6E634F" font-family="'ArquitectaBold'" font-size="16">LOGO - Final</tspan><tspan x="0" y="25.2" fill="#6E634F" font-family="'ArquitectaBold'" font-size="16">full color</tspan></text>
<rect x="-834.842" y="-507.219" fill="#E8E1B7" width="756" height="140.947"/>
<rect x="-804.842" y="-477.219" fill="none" width="557.268" height="110.947"/>
<text transform="matrix(1 0 0 1 -804.8423 -466.5312)"><tspan x="0" y="0" fill="#6E634F" font-family="'ArquitectaBold'" font-size="16">LOGO - Final</tspan><tspan x="0" y="25.2" fill="#6E634F" font-family="'ArquitectaBold'" font-size="16">One color / grayscale</tspan></text>
<g>
	<g>
		<g>
			<path fill="#00AFAA" d="M2600.937,1313.657l-0.001-0.001c-3.692-3.662-5.15-9.016-3.824-14.045v0
				c1.326-5.029,5.234-8.969,10.252-10.335l0,0c5.018-1.366,10.383,0.049,14.075,3.711l0.001,0.001
				c3.692,3.662,5.15,9.016,3.824,14.045l0,0c-1.326,5.029-5.234,8.969-10.252,10.335v0
				C2609.994,1318.734,2604.629,1317.32,2600.937,1313.657z"/>
		</g>
		<g>
			<g>
				<g>
					<path fill="#00AFAA" d="M2616.572,1408.005c-0.197-0.723-0.944-1.149-1.666-0.948c-1.127,0.313-2.904,0.799-5.014,1.355
						c-3.665,0.964-5.426,1.434-7.945-1.094c-3.41-3.422-2.78-5.577-1.246-11.328l17.288-65.907
						c0.225-0.857-0.422-1.696-1.308-1.696l-34.862,0c-1.143,0-2.144,0.764-2.446,1.866l-2.834,10.352
						c-0.295,1.076,0.515,2.137,1.631,2.137l8.615,0c0.554,0,0.959,0.524,0.818,1.06c-1.521,5.781-8.835,33.568-11.122,42.17
						c-4.661,17.534-5.757,18.943-15.643,21.676c-5.16,1.427-8.162,2.197-10.681-0.331c-3.41-3.422-2.78-5.577-1.246-11.328
						c0,0,8.256-31.164,10.535-39.722c3.599-13.513,2.831-15.936-3.442-22.159c-8.993-8.921-14.677-10.338-25.246-7.461
						c-23.286,6.339-25.785,9.753-25.785,9.753s-0.837-1.514-1.621-2.292c-8.336-8.27-15.257-10.271-25.246-7.461
						c-22.279,6.267-23.002,9.944-23.002,9.944l0.869-6.678c0.105-0.809-0.525-1.527-1.341-1.527l-50.607-0.001
						c-0.553,0-0.957-0.522-0.818-1.058l6.031-23.242c0.228-0.88-0.579-1.678-1.457-1.439l-24.972,6.798
						c-1.17,0.318-2.08,1.239-2.385,2.413l-3.96,15.261c-0.194,0.745-0.866,1.266-1.636,1.266l-11.662,0
						c-1.143,0-2.144,0.764-2.446,1.866l-2.834,10.352c-0.294,1.076,0.515,2.137,1.631,2.137l11.724,0
						c0.555,0,0.96,0.526,0.817,1.063l-12.448,46.684c-3.814,14.306-2.485,19.213,5.701,27.334
						c6.14,6.091,11.044,7.384,21.935,4.419c6.738-1.834,12.118-3.299,14.681-3.996c0.901-0.245,1.432-1.174,1.187-2.075
						l-2.223-8.165c-0.197-0.723-0.944-1.149-1.666-0.948c-1.127,0.313-2.903,0.799-5.014,1.355
						c-3.665,0.965-5.426,1.434-7.945-1.094c-3.41-3.422-2.78-5.577-1.246-11.328c1.386-5.193,11.719-44.429,13.71-51.989
						c0.196-0.743,0.866-1.258,1.635-1.258l29.021,0c0.554,0,0.958,0.524,0.818,1.06l-19.613,74.676
						c-0.281,1.072,0.527,2.12,1.635,2.12l22.652,0c1.151,0,2.157-0.773,2.451-1.886c2.475-9.363,13.403-50.7,15.436-58.295
						c3.001-11.212,4.645-12.797,13.771-15.283c6.016-1.639,7.766-0.924,10.345,1.468c3.25,3.014,4.386,4.531,2.447,11.848
						c-2.119,7.996-13.262,50.054-15.905,60.027c-0.284,1.073,0.525,2.122,1.635,2.122l22.643,0c1.153,0,2.16-0.777,2.453-1.892
						l15.29-58.288c3.001-11.212,4.645-12.797,13.771-15.283c6.016-1.639,7.766-0.924,10.345,1.468
						c3.25,3.014,4.328,4.654,2.447,11.848l-8.503,32.039c-3.814,14.306-2.485,19.213,5.701,27.334
						c6.139,6.091,11.049,7.403,21.935,4.419c13.978-3.832,21.31-6.22,25.585-9.233c1.131,1.541,2.548,3.107,4.27,4.814
						c6.139,6.091,11.044,7.384,21.935,4.419c6.738-1.834,12.118-3.299,14.681-3.996c0.901-0.245,1.432-1.174,1.187-2.075
						L2616.572,1408.005z"/>
				</g>
			</g>
		</g>
	</g>
	<g>
		<path fill="#C7B000" d="M2163.01,1487.756c0.362-0.095,0.722-0.195,1.083-0.293l73.695-275.031
			c-0.274-0.276-0.548-0.55-0.823-0.823l-275.031,73.694c-0.098,0.361-0.198,0.721-0.293,1.083l66.858,66.86l-24.46,91.289
			c0.273,0.275,0.548,0.55,0.823,0.823l91.29-24.461L2163.01,1487.756z"/>
		<path fill="#C1BA86" d="M2162.977,1487.765c70.589-18.592,122.647-82.854,122.647-159.282c0-45.689-18.607-87.03-48.652-116.868
			l-73.912,275.838L2162.977,1487.765z"/>
		<path fill="#49C3B1" d="M1961.631,1286.419l276.15-73.994c-29.838-30.045-71.178-48.652-116.868-48.652
			C2044.485,1163.772,1980.224,1215.83,1961.631,1286.419z"/>
		<path fill="#3F5B58" d="M1961.941,1285.274c-3.734,13.772-5.739,28.255-5.739,43.209c0,45.484,18.445,86.654,48.252,116.461
			l0.632-0.454l24.455-91.265l0.074-0.279L1961.941,1285.274z"/>
		<path fill="#606737" d="M2096.45,1419.781l-91.482,24.512l-0.516,0.648c29.807,29.807,70.976,48.252,116.461,48.252
			c14.954,0,29.438-2.005,43.21-5.739L2096.45,1419.781z"/>
		<g>
			<path fill="#00AFAA" d="M1992.432,1277.648l61.237-16.409l-49.225-49.225c-19.379,19.379-33.945,43.568-41.769,70.619
				l-0.863,3.219L1992.432,1277.648z"/>
			<path fill="#49C3B1" d="M2004.445,1212.015l49.225,49.225l91.856-24.613l-67.243-67.243l-3.222,0.863
				C2048.011,1178.072,2023.823,1192.636,2004.445,1212.015z"/>
			<path fill="#B2DEDB" d="M2145.526,1236.627l91.855-24.612c-29.807-29.807-70.984-48.242-116.468-48.242
				c-13.721,0-27.046,1.689-39.79,4.85l-2.841,0.761L2145.526,1236.627z"/>
			<path fill="#E8E1B7" d="M2237.381,1212.016l-24.612,91.855l67.243,67.243l0.76-2.837c3.162-12.745,4.851-26.071,4.851-39.794
				C2285.624,1283,2267.188,1241.822,2237.381,1212.016z"/>
			<path fill="#C1BA86" d="M2212.769,1303.87l-24.613,91.856l49.225,49.225c19.379-19.379,33.945-43.568,41.769-70.619l0.862-3.219
				L2212.769,1303.87z"/>
			<path fill="#A5A983" d="M2237.381,1444.951l-49.225-49.225l-24.613,91.856l3.22-0.863
				C2193.813,1478.895,2218.002,1464.33,2237.381,1444.951z"/>
			<polygon fill="#C7B000" points="1992.432,1277.648 1961.813,1285.852 1961.813,1285.852 1961.813,1285.852 2029.057,1353.096 
				2120.913,1328.483 2053.669,1261.24 			"/>
			<polygon fill="#C4A11C" points="2120.913,1328.483 2029.057,1353.096 2029.057,1353.096 2029.057,1353.096 2004.444,1444.95 
				2004.445,1444.951 2096.3,1420.339 			"/>
			<polygon fill="#C7B000" points="2120.913,1328.483 2096.3,1420.339 2163.543,1487.582 2188.156,1395.726 			"/>
			<polygon fill="#FFC627" points="2237.381,1212.016 2237.381,1212.015 2145.526,1236.627 2053.669,1261.24 2053.669,1261.24 
				2053.669,1261.24 2120.913,1328.483 2188.156,1395.726 2212.769,1303.87 			"/>
		</g>
	</g>
</g>
<g>
	
		<line fill="none" stroke="#3F5B58" stroke-width="0.25" stroke-miterlimit="10" x1="2104.204" y1="1074.578" x2="1950.092" y2="1649.728"/>
	
		<line fill="none" stroke="#3F5B58" stroke-width="0.25" stroke-miterlimit="10" x1="2120.097" y1="1649.728" x2="2274.208" y2="1074.578"/>
	
		<line fill="none" stroke="#3F5B58" stroke-width="0.25" stroke-miterlimit="10" x1="2188.947" y1="1074.578" x2="2034.835" y2="1649.728"/>
</g>
<line fill="none" stroke="#3F5B58" stroke-width="0.25" stroke-miterlimit="10" x1="2290.101" y1="1649.728" x2="2444.212" y2="1074.578"/>
<line fill="none" stroke="#3F5B58" stroke-width="0.25" stroke-miterlimit="10" x1="2358.951" y1="1074.578" x2="2204.84" y2="1649.728"/>
<line fill="none" stroke="#3F5B58" stroke-width="0.25" stroke-miterlimit="10" x1="2460.105" y1="1649.728" x2="2614.217" y2="1074.578"/>
<line fill="none" stroke="#3F5B58" stroke-width="0.25" stroke-miterlimit="10" x1="2528.956" y1="1074.578" x2="2374.844" y2="1649.728"/>
<line fill="none" stroke="#3F5B58" stroke-width="0.25" stroke-miterlimit="10" x1="2630.11" y1="1649.728" x2="2784.221" y2="1074.578"/>
<line fill="none" stroke="#3F5B58" stroke-width="0.25" stroke-miterlimit="10" x1="2698.96" y1="1074.578" x2="2544.849" y2="1649.728"/>
<line fill="none" stroke="#3F5B58" stroke-width="0.25" stroke-miterlimit="10" x1="2828.002" y1="1053.759" x2="2053.669" y2="1261.24"/>
<line fill="none" stroke="#3F5B58" stroke-width="0.25" stroke-miterlimit="10" x1="2803.873" y1="1145.744" x2="2029.54" y2="1353.225"/>
<line fill="none" stroke="#3F5B58" stroke-width="0.25" stroke-miterlimit="10" x1="2779.194" y1="1237.877" x2="2004.861" y2="1445.358"/>
<line fill="none" stroke="#3F5B58" stroke-width="0.25" stroke-miterlimit="10" x1="2755.065" y1="1329.862" x2="1980.732" y2="1537.343"/>
<g>
	<g>
		<path fill="#C7B000" d="M-534.321-1627.996c0.12-0.032,0.24-0.065,0.36-0.097l24.486-91.382c-0.091-0.091-0.182-0.183-0.274-0.274
			l-91.383,24.486c-0.033,0.12-0.066,0.24-0.097,0.36l22.214,22.215l-8.127,30.332c0.091,0.091,0.182,0.183,0.274,0.273
			l30.332-8.127L-534.321-1627.996z"/>
		<path fill="#C1BA86" d="M-534.332-1627.993c23.454-6.177,40.751-27.529,40.751-52.923c0-15.181-6.182-28.917-16.165-38.831
			l-24.558,91.651L-534.332-1627.993z"/>
		<path fill="#49C3B1" d="M-601.232-1694.893l91.754-24.586c-9.914-9.983-23.65-16.165-38.831-16.165
			C-573.703-1735.644-595.054-1718.347-601.232-1694.893z"/>
		<path fill="#3F5B58" d="M-601.129-1695.274c-1.241,4.576-1.907,9.388-1.907,14.357c0,15.113,6.128,28.792,16.032,38.695
			l0.21-0.151l8.125-30.324l0.025-0.093L-601.129-1695.274z"/>
		<path fill="#606737" d="M-556.437-1650.582l-30.396,8.145l-0.171,0.215c9.904,9.904,23.583,16.032,38.695,16.032
			c4.969,0,9.781-0.666,14.357-1.907L-556.437-1650.582z"/>
		<g>
			<path fill="#00AFAA" d="M-590.998-1697.807l20.347-5.452l-16.356-16.355c-6.439,6.439-11.279,14.476-13.878,23.464l-0.287,1.069
				L-590.998-1697.807z"/>
			<path fill="#49C3B1" d="M-587.007-1719.615l16.356,16.355l30.52-8.178l-22.342-22.342l-1.07,0.287
				C-572.531-1730.893-580.568-1726.053-587.007-1719.615z"/>
			<path fill="#B2DEDB" d="M-540.131-1711.437l30.52-8.178c-9.904-9.904-23.585-16.029-38.698-16.029
				c-4.559,0-8.987,0.561-13.221,1.612l-0.944,0.253L-540.131-1711.437z"/>
			<path fill="#E8E1B7" d="M-509.611-1719.615l-8.178,30.52l22.342,22.343l0.253-0.943c1.051-4.235,1.612-8.662,1.612-13.222
				C-493.581-1696.029-499.707-1709.711-509.611-1719.615z"/>
			<path fill="#C1BA86" d="M-517.788-1689.095l-8.178,30.52l16.355,16.356c6.439-6.439,11.279-14.476,13.878-23.464l0.287-1.069
				L-517.788-1689.095z"/>
			<path fill="#A5A983" d="M-509.611-1642.219l-16.355-16.356l-8.178,30.52l1.07-0.287
				C-524.086-1630.94-516.05-1635.78-509.611-1642.219z"/>
			<polygon fill="#C7B000" points="-590.998,-1697.807 -601.171,-1695.081 -601.171,-1695.081 -601.171,-1695.081 
				-578.829,-1672.739 -548.309,-1680.917 -570.651,-1703.259 			"/>
			<polygon fill="#C4A11C" points="-548.309,-1680.917 -578.829,-1672.739 -578.829,-1672.739 -578.829,-1672.739 
				-587.007,-1642.219 -587.007,-1642.219 -556.487,-1650.396 			"/>
			<polygon fill="#C7B000" points="-548.309,-1680.917 -556.487,-1650.396 -534.144,-1628.054 -525.966,-1658.574 			"/>
			<polygon fill="#FFC627" points="-509.611,-1719.615 -509.611,-1719.615 -540.131,-1711.437 -570.651,-1703.259 
				-570.651,-1703.259 -570.651,-1703.259 -548.309,-1680.917 -525.966,-1658.574 -517.788,-1689.095 			"/>
		</g>
	</g>
	<g>
		<path fill="#00AFAA" d="M-318.877-1660.584c-0.268,0-0.514,0.15-0.64,0.389c-1.733,3.313-3.198,5.598-4.408,6.861
			c-1.255,1.31-2.5,1.967-3.727,1.967c-0.449,0-0.88-0.235-1.289-0.708c-0.411-0.471-0.624-0.951-0.645-1.443
			c-0.01-0.316-0.002-0.658,0.036-1.028h0.003l10.623-40.472c0.153-0.574-0.285-1.138-0.88-1.138h-19.15
			c-0.418,0-0.786,0.28-0.897,0.684l-1.645,6.033c-0.155,0.562,0.268,1.116,0.849,1.116h4.762c0.301,0,0.517,0.282,0.442,0.574
			l-5.321,20.235v0.002c-3.077,11.703-8.661,14.362-11.536,14.362c-1.353,0-3.53,0.143-3.865-2.027
			c-0.115-0.772,0.287-2.397,0.961-4.853l5.096-19.047c0.739-2.866,1.191-4.76,1.362-5.682c0.163-0.925,0.22-1.998,0.167-3.225
			c-0.058-1.432-0.512-2.919-1.351-4.455c-0.846-1.539-2.13-2.837-3.855-3.902c-1.723-1.064-3.915-1.597-6.581-1.597
			c-4.422,0-8.574,1.25-12.463,3.746c-2.085,1.338-4.033,2.849-5.854,4.525c-0.052,0.048-0.132,0.021-0.144-0.046
			c-0.406-2.266-1.525-4.128-3.361-5.581c-2.225-1.762-5.06-2.644-8.5-2.644c-2.538,0-5.075,0.521-7.613,1.568
			c-2.538,1.044-5.17,2.703-7.9,4.975c-0.452,0.377-0.896,0.763-1.343,1.164c-0.091,0.083-0.237,0.009-0.218-0.115l0.65-5.001
			c0.055-0.428-0.279-0.808-0.712-0.808h-27.619c-0.311,0-0.538-0.294-0.461-0.597l3.289-12.672
			c0.124-0.478-0.311-0.908-0.787-0.779l-13.647,3.715c-0.631,0.17-1.124,0.667-1.289,1.303l-2.168,8.366
			c-0.103,0.39-0.456,0.664-0.858,0.664h-6.401c-0.619,0-1.162,0.414-1.326,1.011l-1.609,5.888
			c-0.126,0.473,0.229,0.934,0.714,0.934h6.579c0.334,0,0.578,0.318,0.488,0.638l-6.148,22.862
			c-1.061,4.016-1.539,7.186-1.441,9.523c0.143,3.402,1.241,6.124,3.292,8.17c2.054,2.049,4.84,3.074,8.362,3.074
			c2.089,0,4.374-0.461,6.856-1.382c2.326-0.865,4.783-2.579,7.362-5.137c0.284-0.284,0.289-0.743,0.009-1.03l-2.709-2.782
			c-0.201-0.206-0.528-0.201-0.727,0.007c-1.508,1.599-3.251,2.397-5.225,2.397c-0.861,0-1.594-0.356-2.195-1.073
			c-0.603-0.719-0.927-1.508-0.959-2.366c-0.043-0.983,0.239-2.56,0.842-4.731l7.25-27.475c0.108-0.409,0.48-0.695,0.904-0.695
			h15.777c0.328,0,0.567,0.309,0.483,0.627l-10.757,40.931c-0.12,0.468,0.23,0.925,0.717,0.925h12.954
			c0.42,0,0.787-0.284,0.891-0.686l8.962-34.144c2.041-4.664,6.38-6.702,9.392-6.702c1.597,0,2.764,0.461,3.499,1.384
			c0.734,0.92,1.131,2.058,1.188,3.407c0.057,1.351-0.225,3.318-0.856,5.9l-7.915,29.911c-0.125,0.471,0.232,0.928,0.713,0.928
			h12.946c0.419,0,0.789-0.285,0.896-0.695l8.395-31.991c1.508-6.188,7.403-8.845,10.843-8.845c1.475,0,2.679,0.43,3.619,1.288
			c0.937,0.863,1.436,2.029,1.499,3.504c0.046,1.147-0.407,3.502-1.362,7.064l-4.143,15.361c-0.781,2.909-1.135,5.163-1.068,6.76
			c0.093,2.17,1.045,4.114,2.859,5.833c1.81,1.721,5.534,2.582,8.849,2.582c5.718,0,10.821-2.099,15.305-6.299
			c0.354,1.76,1.243,3.315,2.672,4.671c1.791,1.699,4.41,2.55,7.848,2.55c5.12,0,9.301-1.864,12.542-5.593
			c3.053-3.505,5.309-6.946,6.77-10.307c0.131-0.297-0.089-0.628-0.407-0.628H-318.877z"/>
		<path fill="#00AFAA" d="M-328.012-1704.193v-0.002c-2.013-1.998-2.809-4.919-2.087-7.663c0.722-2.746,2.857-4.896,5.596-5.639
			c2.737-0.748,5.665,0.024,7.678,2.023c2.018,2,2.811,4.922,2.089,7.663c-0.724,2.746-2.856,4.896-5.594,5.641
			C-323.071-1701.424-325.996-1702.195-328.012-1704.193"/>
	</g>
</g>
<rect x="-834.842" y="317.099" fill="#E8E1B7" width="756" height="140.947"/>
<rect x="-804.842" y="347.099" fill="none" width="557.268" height="110.947"/>
<text transform="matrix(1 0 0 1 -804.8423 357.7874)"><tspan x="0" y="0" fill="#6E634F" font-family="'ArquitectaBold'" font-size="16">LOGO - Final</tspan><tspan x="0" y="25.2" fill="#6E634F" font-family="'ArquitectaBold'" font-size="16">on dark grounds</tspan></text>
<g>
	<g>
		<path fill="#C7B000" d="M-534.321,153.375c0.12-0.032,0.24-0.065,0.36-0.097l24.486-91.382c-0.091-0.092-0.182-0.183-0.274-0.274
			l-91.383,24.486c-0.033,0.12-0.066,0.24-0.097,0.36l22.214,22.215l-8.127,30.332c0.091,0.091,0.182,0.183,0.274,0.273
			l30.332-8.127L-534.321,153.375z"/>
		<path fill="#C1BA86" d="M-534.332,153.378c23.454-6.177,40.751-27.529,40.751-52.923c0-15.181-6.182-28.917-16.165-38.831
			l-24.558,91.651L-534.332,153.378z"/>
		<path fill="#49C3B1" d="M-601.232,86.479l91.754-24.585c-9.914-9.983-23.65-16.165-38.831-16.165
			C-573.703,45.728-595.054,63.025-601.232,86.479z"/>
		<path fill="#3F5B58" d="M-601.129,86.098c-1.241,4.576-1.907,9.388-1.907,14.357c0,15.113,6.128,28.792,16.032,38.696l0.21-0.151
			l8.125-30.324l0.025-0.093L-601.129,86.098z"/>
		<path fill="#606737" d="M-556.437,130.79l-30.396,8.145l-0.171,0.215c9.904,9.904,23.583,16.032,38.695,16.032
			c4.969,0,9.781-0.666,14.357-1.907L-556.437,130.79z"/>
		<g>
			<path fill="#00AFAA" d="M-590.998,83.565l20.347-5.452l-16.356-16.356c-6.439,6.439-11.279,14.476-13.878,23.464l-0.287,1.069
				L-590.998,83.565z"/>
			<path fill="#49C3B1" d="M-587.007,61.757l16.356,16.356l30.52-8.178l-22.342-22.342l-1.07,0.287
				C-572.531,50.479-580.568,55.318-587.007,61.757z"/>
			<path fill="#B2DEDB" d="M-540.131,69.935l30.52-8.178c-9.904-9.904-23.585-16.029-38.698-16.029
				c-4.559,0-8.987,0.561-13.221,1.612l-0.944,0.253L-540.131,69.935z"/>
			<path fill="#E8E1B7" d="M-509.611,61.757l-8.178,30.52l22.342,22.342l0.253-0.943c1.051-4.235,1.612-8.662,1.612-13.222
				C-493.581,85.343-499.707,71.661-509.611,61.757z"/>
			<path fill="#C1BA86" d="M-517.788,92.277l-8.178,30.52l16.355,16.356c6.439-6.439,11.279-14.476,13.878-23.464l0.287-1.069
				L-517.788,92.277z"/>
			<path fill="#A5A983" d="M-509.611,139.153l-16.355-16.356l-8.178,30.52l1.07-0.287
				C-524.086,150.431-516.05,145.592-509.611,139.153z"/>
			<polygon fill="#C7B000" points="-590.998,83.565 -601.171,86.291 -601.171,86.291 -601.171,86.291 -578.829,108.633 
				-548.309,100.455 -570.651,78.113 			"/>
			<polygon fill="#C4A11C" points="-548.309,100.455 -578.829,108.633 -578.829,108.633 -578.829,108.633 -587.007,139.153 
				-587.007,139.153 -556.487,130.975 			"/>
			<polygon fill="#C7B000" points="-548.309,100.455 -556.487,130.975 -534.144,153.318 -525.966,122.797 			"/>
			<polygon fill="#FFC627" points="-509.611,61.757 -509.611,61.757 -540.131,69.935 -570.651,78.113 -570.651,78.113 
				-570.651,78.113 -548.309,100.455 -525.966,122.797 -517.788,92.277 			"/>
		</g>
	</g>
	<g>
		<path fill="#FFC627" d="M-318.877,120.788c-0.268,0-0.514,0.15-0.64,0.389c-1.733,3.313-3.198,5.598-4.408,6.861
			c-1.255,1.31-2.5,1.967-3.727,1.967c-0.449,0-0.88-0.235-1.289-0.708c-0.411-0.471-0.624-0.951-0.645-1.442
			c-0.01-0.316-0.002-0.658,0.036-1.028h0.003l10.623-40.472c0.153-0.574-0.285-1.138-0.88-1.138h-19.15
			c-0.418,0-0.786,0.28-0.897,0.684l-1.645,6.033c-0.155,0.562,0.268,1.116,0.849,1.116h4.762c0.301,0,0.517,0.282,0.442,0.574
			l-5.321,20.235v0.002c-3.077,11.703-8.661,14.362-11.536,14.362c-1.353,0-3.53,0.143-3.865-2.027
			c-0.115-0.772,0.287-2.397,0.961-4.853l5.096-19.047c0.739-2.866,1.191-4.761,1.362-5.682c0.163-0.925,0.22-1.998,0.167-3.225
			c-0.058-1.432-0.512-2.919-1.351-4.455c-0.846-1.539-2.13-2.837-3.855-3.903c-1.723-1.064-3.915-1.597-6.581-1.597
			c-4.422,0-8.574,1.25-12.463,3.746c-2.085,1.337-4.033,2.849-5.854,4.525c-0.052,0.048-0.132,0.021-0.144-0.046
			c-0.406-2.266-1.525-4.128-3.361-5.581c-2.225-1.762-5.06-2.644-8.5-2.644c-2.538,0-5.075,0.521-7.613,1.568
			c-2.538,1.044-5.17,2.703-7.9,4.975c-0.452,0.377-0.896,0.763-1.343,1.164c-0.091,0.083-0.237,0.009-0.218-0.115l0.65-5.001
			c0.055-0.428-0.279-0.808-0.712-0.808h-27.619c-0.311,0-0.538-0.294-0.461-0.597l3.289-12.672
			c0.124-0.478-0.311-0.908-0.787-0.779l-13.647,3.715c-0.631,0.17-1.124,0.667-1.289,1.303l-2.168,8.366
			c-0.103,0.39-0.456,0.664-0.858,0.664h-6.401c-0.619,0-1.162,0.414-1.326,1.011l-1.609,5.888
			c-0.126,0.473,0.229,0.934,0.714,0.934h6.579c0.334,0,0.578,0.318,0.488,0.638l-6.148,22.862
			c-1.061,4.016-1.539,7.186-1.441,9.523c0.143,3.402,1.241,6.124,3.292,8.17c2.054,2.049,4.84,3.074,8.362,3.074
			c2.089,0,4.374-0.461,6.856-1.382c2.326-0.865,4.783-2.579,7.362-5.137c0.284-0.284,0.289-0.743,0.009-1.03l-2.709-2.782
			c-0.201-0.206-0.528-0.201-0.727,0.007c-1.508,1.599-3.251,2.397-5.225,2.397c-0.861,0-1.594-0.356-2.195-1.073
			c-0.603-0.719-0.927-1.508-0.959-2.366c-0.043-0.983,0.239-2.56,0.842-4.731l7.25-27.475c0.108-0.409,0.48-0.695,0.904-0.695
			h15.777c0.328,0,0.567,0.309,0.483,0.628l-10.757,40.931c-0.12,0.468,0.23,0.925,0.717,0.925h12.954
			c0.42,0,0.787-0.284,0.891-0.686l8.962-34.144c2.041-4.664,6.38-6.702,9.392-6.702c1.597,0,2.764,0.461,3.499,1.384
			c0.734,0.92,1.131,2.058,1.188,3.408c0.057,1.351-0.225,3.318-0.856,5.9l-7.915,29.911c-0.125,0.471,0.232,0.928,0.713,0.928
			h12.946c0.419,0,0.789-0.285,0.896-0.695l8.395-31.991c1.508-6.187,7.403-8.845,10.843-8.845c1.475,0,2.679,0.43,3.619,1.288
			c0.937,0.863,1.436,2.029,1.499,3.504c0.046,1.147-0.407,3.502-1.362,7.064l-4.143,15.361c-0.781,2.909-1.135,5.163-1.068,6.76
			c0.093,2.17,1.045,4.114,2.859,5.833c1.81,1.721,5.534,2.582,8.849,2.582c5.718,0,10.821-2.099,15.305-6.299
			c0.354,1.76,1.243,3.315,2.672,4.671c1.791,1.699,4.41,2.55,7.848,2.55c5.12,0,9.301-1.864,12.542-5.593
			c3.053-3.506,5.309-6.946,6.77-10.307c0.131-0.297-0.089-0.628-0.407-0.628H-318.877z"/>
		<path fill="#FFC627" d="M-328.012,77.179v-0.002c-2.013-1.998-2.809-4.919-2.087-7.663c0.722-2.746,2.857-4.896,5.596-5.639
			c2.737-0.748,5.665,0.024,7.678,2.024c2.018,2,2.811,4.922,2.089,7.663c-0.724,2.746-2.856,4.896-5.594,5.641
			C-323.071,79.947-325.996,79.177-328.012,77.179"/>
	</g>
</g>
<g>
	<g>
		<path fill="#3F5B58" d="M-601.171-738.028l0.05-0.185l-0.007-0.007c-1.241,4.576-1.907,9.388-1.907,14.357
			c0,15.111,6.128,28.79,16.03,38.693l8.177-30.515L-601.171-738.028z"/>
		<path opacity="0.93" fill="#3F5B58" d="M-556.487-693.344l-30.516,8.177c9.904,9.903,23.582,16.03,38.693,16.03
			c4.969,0,9.781-0.666,14.357-1.907l-0.007-0.007l-0.185,0.05L-556.487-693.344z"/>
		<path opacity="0.7" fill="#3F5B58" d="M-590.998-740.754l20.347-5.452l-16.355-16.355c-6.439,6.439-11.279,14.476-13.878,23.464
			l-0.237,0.884l-0.05,0.185L-590.998-740.754z"/>
		<path opacity="0.5" fill="#3F5B58" d="M-540.131-754.384l-22.342-22.342l-1.07,0.287c-8.988,2.6-17.024,7.439-23.463,13.878
			l16.355,16.355L-540.131-754.384z"/>
		<path opacity="0.35" fill="#3F5B58" d="M-509.611-762.561c-9.904-9.904-23.586-16.029-38.698-16.029
			c-4.559,0-8.987,0.561-13.221,1.612l-0.944,0.253l22.342,22.342L-509.611-762.561z"/>
		<path opacity="0.3" fill="#3F5B58" d="M-509.611-762.561l-8.178,30.52l22.342,22.342l0.253-0.943
			c1.051-4.235,1.612-8.662,1.612-13.222C-493.581-738.976-499.707-752.657-509.611-762.561z"/>
		<path opacity="0.45" fill="#3F5B58" d="M-525.966-701.521l16.355,16.355c6.439-6.439,11.279-14.476,13.878-23.464l0.286-1.069
			l-22.342-22.342L-525.966-701.521z"/>
		<path opacity="0.68" fill="#3F5B58" d="M-534.144-671.001l0.185-0.05l0.885-0.237c8.988-2.6,17.025-7.439,23.464-13.878
			l-16.355-16.355L-534.144-671.001z"/>
		<polygon opacity="0.38" fill="#3F5B58" points="-590.998,-740.754 -601.171,-738.028 -578.829,-715.686 -548.309,-723.864 
			-570.651,-746.206 		"/>
		<polygon opacity="0.5" fill="#3F5B58" points="-548.309,-723.864 -578.829,-715.686 -587.006,-685.171 -587.007,-685.166 
			-587.007,-685.166 -587.002,-685.167 -556.487,-693.344 		"/>
		<polygon opacity="0.38" fill="#3F5B58" points="-556.487,-693.344 -534.144,-671.001 -525.966,-701.521 -548.309,-723.864 		"/>
		<polygon opacity="0.15" fill="#3F5B58" points="-570.651,-746.206 -548.309,-723.864 -525.966,-701.521 -517.788,-732.042 
			-509.611,-762.561 -509.611,-762.561 -540.131,-754.384 		"/>
	</g>
	<g>
		<g>
			<path fill="#3F5B58" d="M-318.877-703.531c-0.268,0-0.514,0.15-0.64,0.389c-1.733,3.313-3.198,5.598-4.408,6.862
				c-1.255,1.31-2.5,1.967-3.727,1.967c-0.449,0-0.88-0.235-1.289-0.708c-0.411-0.471-0.624-0.951-0.645-1.442
				c-0.01-0.316-0.002-0.658,0.036-1.028h0.003l10.623-40.472c0.153-0.574-0.285-1.138-0.88-1.138h-19.15
				c-0.418,0-0.786,0.28-0.897,0.684l-1.645,6.033c-0.155,0.562,0.268,1.116,0.849,1.116h4.762c0.301,0,0.517,0.282,0.442,0.574
				l-5.321,20.235v0.002c-3.077,11.703-8.661,14.362-11.536,14.362c-1.353,0-3.53,0.143-3.865-2.027
				c-0.115-0.772,0.287-2.397,0.961-4.853l5.096-19.047c0.739-2.866,1.191-4.76,1.362-5.682c0.163-0.925,0.22-1.998,0.167-3.225
				c-0.058-1.432-0.512-2.919-1.351-4.455c-0.846-1.539-2.13-2.837-3.855-3.903c-1.723-1.064-3.915-1.597-6.581-1.597
				c-4.422,0-8.574,1.25-12.463,3.746c-2.085,1.337-4.033,2.849-5.854,4.525c-0.052,0.048-0.132,0.021-0.144-0.046
				c-0.406-2.266-1.525-4.128-3.361-5.581c-2.225-1.762-5.06-2.644-8.5-2.644c-2.538,0-5.075,0.521-7.613,1.568
				c-2.538,1.044-5.17,2.703-7.9,4.975c-0.452,0.377-0.896,0.763-1.343,1.164c-0.091,0.083-0.237,0.009-0.218-0.115l0.65-5.001
				c0.055-0.428-0.279-0.808-0.712-0.808h-27.619c-0.311,0-0.538-0.294-0.461-0.597l3.289-12.672
				c0.124-0.478-0.311-0.908-0.787-0.779l-13.647,3.715c-0.631,0.17-1.124,0.667-1.289,1.303l-2.168,8.366
				c-0.103,0.39-0.456,0.664-0.858,0.664h-6.401c-0.619,0-1.162,0.414-1.326,1.011l-1.609,5.888
				c-0.126,0.473,0.229,0.934,0.714,0.934h6.579c0.334,0,0.578,0.318,0.488,0.638l-6.148,22.862
				c-1.061,4.016-1.539,7.186-1.441,9.523c0.143,3.402,1.241,6.124,3.292,8.17c2.054,2.049,4.84,3.074,8.362,3.074
				c2.089,0,4.374-0.461,6.856-1.382c2.326-0.865,4.783-2.579,7.362-5.137c0.284-0.284,0.289-0.743,0.009-1.03l-2.709-2.782
				c-0.201-0.206-0.528-0.201-0.727,0.007c-1.508,1.599-3.251,2.397-5.225,2.397c-0.861,0-1.594-0.356-2.195-1.073
				c-0.603-0.719-0.927-1.508-0.959-2.366c-0.043-0.983,0.239-2.56,0.842-4.731l7.25-27.475c0.108-0.409,0.48-0.695,0.904-0.695
				h15.777c0.328,0,0.567,0.309,0.483,0.628l-10.757,40.931c-0.12,0.468,0.23,0.925,0.717,0.925h12.954
				c0.42,0,0.787-0.284,0.891-0.686l8.962-34.144c2.041-4.664,6.38-6.702,9.392-6.702c1.597,0,2.764,0.461,3.499,1.384
				c0.734,0.92,1.131,2.058,1.188,3.408c0.057,1.351-0.225,3.318-0.856,5.9l-7.915,29.911c-0.125,0.471,0.232,0.928,0.713,0.928
				h12.946c0.419,0,0.789-0.285,0.896-0.695l8.395-31.991c1.508-6.188,7.403-8.845,10.843-8.845c1.475,0,2.679,0.43,3.619,1.288
				c0.937,0.863,1.436,2.029,1.499,3.504c0.046,1.147-0.407,3.502-1.362,7.064l-4.143,15.361c-0.781,2.909-1.135,5.163-1.068,6.76
				c0.093,2.17,1.045,4.114,2.859,5.833c1.81,1.721,5.534,2.582,8.849,2.582c5.718,0,10.821-2.099,15.305-6.299
				c0.354,1.76,1.243,3.315,2.672,4.671c1.791,1.699,4.41,2.55,7.848,2.55c5.12,0,9.301-1.864,12.542-5.593
				c3.053-3.506,5.309-6.946,6.77-10.307c0.131-0.297-0.089-0.628-0.407-0.628H-318.877z"/>
			<path fill="#3F5B58" d="M-328.012-747.139v-0.002c-2.013-1.998-2.809-4.919-2.087-7.663c0.722-2.746,2.857-4.896,5.596-5.639
				c2.737-0.748,5.665,0.024,7.678,2.024c2.018,2,2.811,4.922,2.089,7.663c-0.724,2.746-2.856,4.896-5.594,5.641
				C-323.071-744.371-325.996-745.142-328.012-747.139"/>
		</g>
	</g>
</g>
<g>
	<g>
		<path fill="#C7B000" d="M79.448,114.542c0.12-0.032,0.24-0.065,0.36-0.097l24.486-91.382c-0.091-0.092-0.182-0.183-0.274-0.274
			L12.638,47.275c-0.033,0.12-0.066,0.24-0.097,0.36L34.755,69.85l-8.127,30.332c0.091,0.091,0.182,0.183,0.274,0.273l30.332-8.127
			L79.448,114.542z"/>
		<path fill="#C1BA86" d="M79.437,114.545c23.454-6.177,40.751-27.529,40.751-52.923c0-15.181-6.182-28.917-16.165-38.831
			l-24.558,91.651L79.437,114.545z"/>
		<path fill="#49C3B1" d="M12.538,47.646l91.754-24.586c-9.914-9.983-23.65-16.165-38.831-16.165
			C40.067,6.895,18.715,24.192,12.538,47.646z"/>
		<path fill="#3F5B58" d="M12.641,47.265c-1.241,4.576-1.907,9.388-1.907,14.357c0,15.113,6.128,28.792,16.032,38.696l0.21-0.151
			l8.126-30.324l0.025-0.093L12.641,47.265z"/>
		<path fill="#606737" d="M57.333,91.957l-30.396,8.145l-0.171,0.215c9.904,9.904,23.583,16.032,38.695,16.032
			c4.969,0,9.781-0.666,14.357-1.907L57.333,91.957z"/>
		<g>
			<path fill="#00AFAA" d="M22.772,44.731l20.347-5.452L26.763,22.924C20.324,29.363,15.485,37.4,12.885,46.388l-0.287,1.069
				L22.772,44.731z"/>
			<path fill="#49C3B1" d="M26.763,22.924L43.119,39.28l30.52-8.178L51.297,8.759l-1.07,0.287
				C41.239,11.646,33.202,16.485,26.763,22.924z"/>
			<path fill="#B2DEDB" d="M73.639,31.102l30.52-8.178C94.255,13.02,80.574,6.895,65.461,6.895c-4.559,0-8.987,0.561-13.221,1.612
				l-0.944,0.253L73.639,31.102z"/>
			<path fill="#E8E1B7" d="M104.159,22.924l-8.178,30.52l22.342,22.342l0.253-0.943c1.051-4.235,1.612-8.662,1.612-13.222
				C120.188,46.51,114.063,32.828,104.159,22.924z"/>
			<path fill="#C1BA86" d="M95.982,53.444l-8.178,30.52l16.355,16.356c6.439-6.439,11.279-14.476,13.878-23.464l0.287-1.069
				L95.982,53.444z"/>
			<path fill="#A5A983" d="M104.159,100.32L87.804,83.964l-8.178,30.52l1.07-0.287C89.683,111.598,97.72,106.759,104.159,100.32z"/>
			<polygon fill="#C7B000" points="22.772,44.731 12.598,47.457 12.598,47.457 12.598,47.457 34.941,69.8 65.461,61.622 
				43.119,39.28 			"/>
			<polygon fill="#C4A11C" points="65.461,61.622 34.941,69.8 34.941,69.8 34.941,69.8 26.763,100.32 26.763,100.32 57.283,92.142 
							"/>
			<polygon fill="#C7B000" points="65.461,61.622 57.283,92.142 79.626,114.485 87.804,83.964 			"/>
			<polygon fill="#FFC627" points="104.159,22.924 104.159,22.924 73.639,31.102 43.119,39.28 43.119,39.28 43.119,39.28 
				65.461,61.622 87.804,83.964 95.982,53.444 			"/>
		</g>
	</g>
	<g>
		<path fill="#00AFAA" d="M294.893,81.955c-0.268,0-0.514,0.15-0.64,0.389c-1.733,3.313-3.198,5.598-4.408,6.861
			c-1.255,1.31-2.5,1.967-3.727,1.967c-0.449,0-0.88-0.235-1.289-0.708c-0.411-0.471-0.624-0.951-0.645-1.442
			c-0.01-0.316-0.002-0.658,0.036-1.028h0.003l10.623-40.472c0.153-0.574-0.285-1.138-0.88-1.138h-19.15
			c-0.418,0-0.786,0.28-0.897,0.684l-1.645,6.033c-0.155,0.562,0.268,1.116,0.849,1.116h4.762c0.301,0,0.517,0.282,0.442,0.574
			l-5.321,20.235v0.002c-3.077,11.703-8.661,14.362-11.536,14.362c-1.353,0-3.53,0.143-3.865-2.027
			c-0.115-0.772,0.287-2.397,0.961-4.853l5.096-19.047c0.739-2.866,1.191-4.761,1.362-5.682c0.163-0.925,0.22-1.998,0.167-3.225
			c-0.058-1.432-0.512-2.919-1.351-4.455c-0.846-1.539-2.13-2.837-3.855-3.903c-1.723-1.064-3.915-1.597-6.581-1.597
			c-4.422,0-8.574,1.25-12.463,3.746c-2.085,1.337-4.033,2.849-5.854,4.525c-0.052,0.048-0.132,0.021-0.144-0.046
			c-0.406-2.266-1.525-4.128-3.361-5.581c-2.225-1.762-5.06-2.644-8.5-2.644c-2.538,0-5.075,0.521-7.613,1.568
			c-2.538,1.044-5.17,2.703-7.9,4.975c-0.452,0.377-0.896,0.763-1.343,1.164c-0.091,0.083-0.237,0.009-0.218-0.115l0.65-5.001
			c0.055-0.428-0.278-0.808-0.712-0.808h-27.619c-0.311,0-0.538-0.294-0.461-0.597l3.289-12.672
			c0.124-0.478-0.311-0.908-0.787-0.779l-13.647,3.715c-0.631,0.17-1.124,0.667-1.289,1.303l-2.168,8.366
			c-0.103,0.39-0.456,0.664-0.858,0.664h-6.401c-0.619,0-1.162,0.414-1.326,1.011l-1.609,5.888
			c-0.126,0.473,0.229,0.934,0.713,0.934h6.579c0.334,0,0.578,0.318,0.488,0.638l-6.148,22.862
			c-1.061,4.016-1.539,7.186-1.441,9.523c0.143,3.402,1.241,6.124,3.292,8.17c2.054,2.049,4.84,3.074,8.362,3.074
			c2.089,0,4.374-0.461,6.856-1.382c2.326-0.865,4.783-2.579,7.362-5.137c0.284-0.284,0.289-0.743,0.009-1.03l-2.709-2.782
			c-0.201-0.206-0.528-0.201-0.727,0.007c-1.508,1.599-3.251,2.397-5.225,2.397c-0.861,0-1.594-0.356-2.195-1.073
			c-0.603-0.719-0.927-1.508-0.959-2.366c-0.043-0.983,0.239-2.56,0.842-4.731l7.25-27.475c0.108-0.409,0.48-0.695,0.904-0.695
			H192.1c0.328,0,0.567,0.309,0.483,0.628l-10.757,40.931c-0.12,0.468,0.23,0.925,0.717,0.925h12.954
			c0.42,0,0.787-0.284,0.891-0.686l8.962-34.144c2.041-4.664,6.38-6.702,9.392-6.702c1.597,0,2.765,0.461,3.499,1.384
			c0.734,0.92,1.131,2.058,1.188,3.407c0.057,1.351-0.225,3.318-0.856,5.9l-7.915,29.911c-0.126,0.471,0.232,0.928,0.713,0.928
			h12.946c0.42,0,0.789-0.285,0.896-0.695l8.395-31.991c1.508-6.187,7.403-8.845,10.843-8.845c1.475,0,2.679,0.43,3.619,1.288
			c0.937,0.863,1.436,2.029,1.499,3.504c0.046,1.147-0.407,3.502-1.362,7.064l-4.143,15.361c-0.781,2.909-1.135,5.163-1.068,6.76
			c0.093,2.17,1.045,4.114,2.859,5.833c1.81,1.721,5.534,2.582,8.849,2.582c5.718,0,10.821-2.099,15.305-6.299
			c0.354,1.76,1.243,3.315,2.672,4.671c1.791,1.699,4.41,2.55,7.848,2.55c5.12,0,9.301-1.864,12.542-5.593
			c3.053-3.506,5.309-6.946,6.77-10.307c0.131-0.297-0.089-0.628-0.407-0.628H294.893z"/>
		<path fill="#00AFAA" d="M285.758,38.346v-0.002c-2.013-1.998-2.809-4.919-2.087-7.663c0.722-2.746,2.857-4.896,5.596-5.639
			c2.737-0.748,5.665,0.024,7.678,2.024c2.018,2,2.811,4.922,2.089,7.663c-0.724,2.746-2.856,4.896-5.594,5.641
			C290.699,41.114,287.774,40.344,285.758,38.346"/>
	</g>
</g>
</svg>
