<?xml version="1.0" encoding="utf-8"?>
<!-- Generator: Adobe Illustrator 18.1.0, SVG Export Plug-In . SVG Version: 6.00 Build 0)  -->
<svg version="1.1" id="Layer_1" xmlns="http://www.w3.org/2000/svg" xmlns:xlink="http://www.w3.org/1999/xlink" x="0px" y="0px"
	 viewBox="-222 390.5 756 262.8" enable-background="new -222 390.5 756 262.8" xml:space="preserve">
<g>
	<g>
		<path fill="#00AFAA" d="M460.1,570.9c-0.7,0-1.2,0.2-1.4,1c-4.1,7.9-7.7,13.4-10.6,16.6c-3.1,3.1-6,4.8-8.9,4.8
			c-1,0-2.2-0.5-3.1-1.7s-1.4-2.4-1.4-3.4c0-0.7,0-1.7,0-2.4l0,0l25.4-97.2c0.5-1.4-0.7-2.6-2.2-2.6h-46.1c-1,0-1.9,0.7-2.2,1.7
			l-3.8,14.4c-0.5,1.4,0.7,2.6,1.9,2.6h11.5c0.7,0,1.2,0.7,1,1.4l-12.7,48.5l0,0c-7.4,28.1-20.9,34.6-27.6,34.6
			c-3.4,0-8.4,0.2-9.4-4.8c-0.2-1.9,0.7-5.8,2.4-11.8l12.2-45.6c1.7-7,2.9-11.5,3.4-13.7c0.5-2.2,0.5-4.8,0.5-7.7
			c-0.2-3.4-1.2-7-3.4-10.8c-1.9-3.6-5-6.7-9.4-9.4c-4.1-2.6-9.4-3.8-15.8-3.8c-10.6,0-20.6,2.9-30,8.9c-5,3.1-9.6,6.7-14.2,10.8
			c-0.2,0-0.2,0-0.2,0c-1-5.5-3.6-9.8-8.2-13.4c-5.3-4.3-12.2-6.2-20.4-6.2c-6,0-12.2,1.2-18.2,3.8c-6,2.4-12.5,6.5-19,12
			c-1.2,1-2.2,1.9-3.1,2.9c-0.2,0.2-0.5,0-0.5-0.2l1.4-12c0.2-1-0.7-1.9-1.7-1.9h-66.2c-0.7,0-1.2-0.7-1.2-1.4l7.9-30.5
			c0.2-1.2-0.7-2.2-1.9-1.9l-32.6,8.9c-1.4,0.5-2.6,1.7-3.1,3.1l-5.3,20.2c-0.2,1-1.2,1.7-2.2,1.7h-15.4c-1.4,0-2.9,1-3.1,2.4
			l-3.8,14.2c-0.2,1.2,0.5,2.2,1.7,2.2H137c0.7,0,1.4,0.7,1.2,1.4l-14.6,55c-2.6,9.6-3.6,17.3-3.4,22.8c0.2,8.2,2.9,14.6,7.9,19.7
			c5,4.8,11.5,7.4,20.2,7.4c5,0,10.6-1.2,16.6-3.4c5.5-2.2,11.5-6.2,17.8-12.2c0.7-0.7,0.7-1.7,0-2.4l-6.5-6.7
			c-0.5-0.5-1.2-0.5-1.7,0c-3.6,3.8-7.9,5.8-12.5,5.8c-2.2,0-3.8-1-5.3-2.6c-1.4-1.7-2.2-3.6-2.4-5.8c0-2.4,0.5-6.2,1.9-11.3
			l17.3-66c0.2-1,1.2-1.7,2.2-1.7h37.9c0.7,0,1.4,0.7,1.2,1.4l-26.2,97.7c-0.2,1.2,0.5,2.2,1.7,2.2h31.2c1,0,1.9-0.7,2.2-1.7
			l21.6-81.8c4.8-11.3,15.4-16.1,22.6-16.1c3.8,0,6.7,1.2,8.4,3.4s2.6,5,2.9,8.2c0.2,3.4-0.5,7.9-2.2,14.2l-19,71.8
			c-0.2,1.2,0.5,2.2,1.7,2.2h31c1,0,1.9-0.7,2.2-1.7l20.2-76.8c3.6-14.9,17.8-21.1,25.9-21.1c3.6,0,6.5,1,8.6,3.1
			c2.2,2.2,3.4,4.8,3.6,8.4c0,2.6-1,8.4-3.4,17l-9.8,37c-1.9,7-2.6,12.5-2.6,16.3c0.2,5.3,2.4,9.8,7,13.9c4.3,4.1,13.2,6.2,21.1,6.2
			c13.7,0,25.9-5,36.7-15.1c1,4.3,2.9,7.9,6.5,11.3c4.3,4.1,10.6,6,18.7,6c12.2,0,22.3-4.6,30-13.4c7.4-8.4,12.7-16.6,16.3-24.7
			c0.2-0.7-0.2-1.4-1-1.4L460.1,570.9L460.1,570.9z"/>
		<path fill="#00AFAA" d="M438,466.1L438,466.1c-4.8-4.8-6.7-11.8-5-18.5c1.7-6.5,7-11.8,13.4-13.4c6.5-1.7,13.7,0,18.5,4.8
			c4.8,4.8,6.7,11.8,5,18.5c-1.7,6.5-7,11.8-13.4,13.4C450,472.8,442.8,470.9,438,466.1"/>
	</g>
</g>
<g>
	<path fill="#C7B000" d="M-57.1,648.9c0.2,0,0.5-0.2,1-0.2L2.6,429.3c-0.2-0.2-0.5-0.5-0.7-0.7l-219.4,58.8c0,0.2-0.2,0.5-0.2,1
		l53.3,53.3l-19.4,72.7c0.2,0.2,0.5,0.5,0.7,0.7l72.7-19.4L-57.1,648.9z"/>
	<path fill="#C1BA86" d="M-57.1,648.9c56.4-14.9,97.9-66,97.9-127c0-36.5-14.9-69.4-38.9-93.1L-57.1,648.9L-57.1,648.9z"/>
	<path fill="#49C3B1" d="M-217.7,488.4l220.3-59c-23.8-24-56.6-38.9-93.1-38.9C-151.7,390.7-202.8,432.2-217.7,488.4z"/>
	<path fill="#3F5B58" d="M-217.4,487.7c-2.9,11-4.6,22.6-4.6,34.6c0,36.2,14.6,69.1,38.4,92.9l0.5-0.5l19.4-72.7v-0.2L-217.4,487.7z
		"/>
	<path fill="#606737" d="M-110.2,594.9l-73,19.4l-0.5,0.5c23.8,23.8,56.6,38.4,92.9,38.4c12,0,23.5-1.7,34.6-4.6L-110.2,594.9z"/>
	<g>
		<path fill="#00AFAA" d="M-193.2,481.4l48.7-13.2l-39.4-39.4c-15.4,15.4-27.1,34.8-33.4,56.4l-0.7,2.6L-193.2,481.4z"/>
		<path fill="#49C3B1" d="M-183.6,429.1l39.4,39.4l73.2-19.7l-53.5-53.5l-2.6,0.7C-148.8,402-168,413.7-183.6,429.1z"/>
		<path fill="#B2DEDB" d="M-71,448.8l73.2-19.7c-23.8-23.8-56.6-38.4-92.9-38.4c-11,0-21.6,1.4-31.7,3.8l-2.2,0.7L-71,448.8z"/>
		<path fill="#E8E1B7" d="M2.2,429.1l-19.7,73.2L36,555.8l0.7-2.2c2.6-10.1,3.8-20.9,3.8-31.7C40.8,485.7,25.9,452.9,2.2,429.1z"/>
		<path fill="#C1BA86" d="M-17.5,502.3l-19.7,73.2l39.4,39.4c15.4-15.4,27.1-34.8,33.4-56.4l0.7-2.6L-17.5,502.3z"/>
		<path fill="#A5A983" d="M2.2,614.9l-39.4-39.4l-19.7,73.2l2.6-0.7C-32.6,642-13.2,630.5,2.2,614.9z"/>
		<polygon fill="#C7B000" points="-193.2,481.4 -217.4,488.1 -217.4,488.1 -217.4,488.1 -163.9,541.7 -90.7,522 -144.2,468.5 		"/>
		<polygon fill="#C4A11C" points="-90.7,522 -163.9,541.7 -163.9,541.7 -163.9,541.7 -183.6,614.9 -183.6,614.9 -110.4,595.2 		"/>
		<polygon fill="#C7B000" points="-90.7,522 -110.4,595.2 -56.6,648.9 -37,575.7 		"/>
		<polygon fill="#FFC627" points="2.2,429.1 2.2,429.1 -71,448.8 -144.2,468.5 -144.2,468.5 -144.2,468.5 -90.7,522 -37,575.7 
			-17.5,502.3 		"/>
	</g>
</g>
<g>
	<path fill="#A5A983" d="M31.1,603.6h14.4l-0.6,2.1h-6l-4.1,15.1h-2.5l4.1-15.1h-6L31.1,603.6z"/>
	<path fill="#A5A983" d="M61.4,608.8l-7.6,6.2h-0.6l-4.1-6.2l-3.3,12h-2.3l4.7-17.3h0.6l5.6,8.3l10.1-8.3h0.8l-4.7,17.3h-2.3
		L61.4,608.8z"/>
</g>
</svg>
