<?xml version="1.0" encoding="utf-8"?>
<!-- Generator: Adobe Illustrator 18.1.0, SVG Export Plug-In . SVG Version: 6.00 Build 0)  -->
<svg version="1.1" id="Layer_1" xmlns="http://www.w3.org/2000/svg" xmlns:xlink="http://www.w3.org/1999/xlink" x="0px" y="0px"
	 viewBox="-222 234.1 315 109.5" enable-background="new -222 234.1 315 109.5" xml:space="preserve">
<g>
	<g>
		<g>
			<path fill="#C7B000" d="M-153.3,341.7c0.1,0,0.2-0.1,0.4-0.1l24.5-91.4c-0.1-0.1-0.2-0.2-0.3-0.3l-91.4,24.5
				c0,0.1-0.1,0.2-0.1,0.4l22.2,22.2l-8.1,30.3c0.1,0.1,0.2,0.2,0.3,0.3l30.3-8.1L-153.3,341.7z"/>
			<path fill="#C1BA86" d="M-153.3,341.7c23.5-6.2,40.8-27.5,40.8-52.9c0-15.2-6.2-28.9-16.2-38.8l-24.6,91.7L-153.3,341.7z"/>
			<path fill="#49C3B1" d="M-220.2,274.8l91.8-24.6c-9.9-10-23.6-16.2-38.8-16.2C-192.7,234.1-214,251.4-220.2,274.8z"/>
			<path fill="#3F5B58" d="M-220.1,274.5c-1.2,4.6-1.9,9.4-1.9,14.4c0,15.1,6.1,28.8,16,38.7l0.2-0.2l8.1-30.3l0-0.1L-220.1,274.5z"
				/>
			<path fill="#606737" d="M-175.4,319.2l-30.4,8.1l-0.2,0.2c9.9,9.9,23.6,16,38.7,16c5,0,9.8-0.7,14.4-1.9L-175.4,319.2z"/>
			<g>
				<path fill="#00AFAA" d="M-210,271.9l20.3-5.5l-16.4-16.4c-6.4,6.4-11.3,14.5-13.9,23.5l-0.3,1.1L-210,271.9z"/>
				<path fill="#49C3B1" d="M-206,250.1l16.4,16.4l30.5-8.2l-22.3-22.3l-1.1,0.3C-191.5,238.8-199.5,243.7-206,250.1z"/>
				<path fill="#B2DEDB" d="M-159.1,258.3l30.5-8.2c-9.9-9.9-23.6-16-38.7-16c-4.6,0-9,0.6-13.2,1.6l-0.9,0.3L-159.1,258.3z"/>
				<path fill="#E8E1B7" d="M-128.6,250.1l-8.2,30.5l22.3,22.3l0.3-0.9c1.1-4.2,1.6-8.7,1.6-13.2
					C-112.5,273.7-118.7,260-128.6,250.1z"/>
				<path fill="#C1BA86" d="M-136.8,280.6l-8.2,30.5l16.4,16.4c6.4-6.4,11.3-14.5,13.9-23.5l0.3-1.1L-136.8,280.6z"/>
				<path fill="#A5A983" d="M-128.6,327.5l-16.4-16.4l-8.2,30.5l1.1-0.3C-143.1,338.8-135,334-128.6,327.5z"/>
				<polygon fill="#C7B000" points="-210,271.9 -220.1,274.7 -220.1,274.7 -220.1,274.7 -197.8,297 -167.3,288.8 -189.6,266.5 				
					"/>
				<polygon fill="#C4A11C" points="-167.3,288.8 -197.8,297 -197.8,297 -197.8,297 -206,327.5 -206,327.5 -175.5,319.3 				"/>
				<polygon fill="#C7B000" points="-167.3,288.8 -175.5,319.3 -153.1,341.7 -144.9,311.2 				"/>
				<polygon fill="#FFC627" points="-128.6,250.1 -128.6,250.1 -159.1,258.3 -189.6,266.5 -189.6,266.5 -189.6,266.5 -167.3,288.8 
					-144.9,311.2 -136.8,280.6 				"/>
			</g>
		</g>
		<g>
			<path fill="#00AFAA" d="M62.2,309.2c-0.3,0-0.5,0.1-0.6,0.4c-1.7,3.3-3.2,5.6-4.4,6.9c-1.3,1.3-2.5,2-3.7,2
				c-0.4,0-0.9-0.2-1.3-0.7c-0.4-0.5-0.6-1-0.6-1.4c0-0.3,0-0.7,0-1h0l10.6-40.5c0.2-0.6-0.3-1.1-0.9-1.1H42.1
				c-0.4,0-0.8,0.3-0.9,0.7l-1.6,6c-0.2,0.6,0.3,1.1,0.8,1.1h4.8c0.3,0,0.5,0.3,0.4,0.6l-5.3,20.2v0c-3.1,11.7-8.7,14.4-11.5,14.4
				c-1.4,0-3.5,0.1-3.9-2c-0.1-0.8,0.3-2.4,1-4.9l5.1-19c0.7-2.9,1.2-4.8,1.4-5.7c0.2-0.9,0.2-2,0.2-3.2c-0.1-1.4-0.5-2.9-1.4-4.5
				c-0.8-1.5-2.1-2.8-3.9-3.9c-1.7-1.1-3.9-1.6-6.6-1.6c-4.4,0-8.6,1.2-12.5,3.7c-2.1,1.3-4,2.8-5.9,4.5c-0.1,0-0.1,0-0.1,0
				c-0.4-2.3-1.5-4.1-3.4-5.6c-2.2-1.8-5.1-2.6-8.5-2.6c-2.5,0-5.1,0.5-7.6,1.6c-2.5,1-5.2,2.7-7.9,5c-0.5,0.4-0.9,0.8-1.3,1.2
				c-0.1,0.1-0.2,0-0.2-0.1l0.6-5c0.1-0.4-0.3-0.8-0.7-0.8h-27.6c-0.3,0-0.5-0.3-0.5-0.6l3.3-12.7c0.1-0.5-0.3-0.9-0.8-0.8
				l-13.6,3.7c-0.6,0.2-1.1,0.7-1.3,1.3l-2.2,8.4c-0.1,0.4-0.5,0.7-0.9,0.7h-6.4c-0.6,0-1.2,0.4-1.3,1l-1.6,5.9
				c-0.1,0.5,0.2,0.9,0.7,0.9h6.6c0.3,0,0.6,0.3,0.5,0.6l-6.1,22.9c-1.1,4-1.5,7.2-1.4,9.5c0.1,3.4,1.2,6.1,3.3,8.2
				c2.1,2,4.8,3.1,8.4,3.1c2.1,0,4.4-0.5,6.9-1.4c2.3-0.9,4.8-2.6,7.4-5.1c0.3-0.3,0.3-0.7,0-1l-2.7-2.8c-0.2-0.2-0.5-0.2-0.7,0
				c-1.5,1.6-3.3,2.4-5.2,2.4c-0.9,0-1.6-0.4-2.2-1.1c-0.6-0.7-0.9-1.5-1-2.4c0-1,0.2-2.6,0.8-4.7l7.2-27.5c0.1-0.4,0.5-0.7,0.9-0.7
				h15.8c0.3,0,0.6,0.3,0.5,0.6L-50.9,323c-0.1,0.5,0.2,0.9,0.7,0.9h13c0.4,0,0.8-0.3,0.9-0.7l9-34.1c2-4.7,6.4-6.7,9.4-6.7
				c1.6,0,2.8,0.5,3.5,1.4c0.7,0.9,1.1,2.1,1.2,3.4c0.1,1.4-0.2,3.3-0.9,5.9l-7.9,29.9c-0.1,0.5,0.2,0.9,0.7,0.9h12.9
				c0.4,0,0.8-0.3,0.9-0.7l8.4-32c1.5-6.2,7.4-8.8,10.8-8.8c1.5,0,2.7,0.4,3.6,1.3c0.9,0.9,1.4,2,1.5,3.5c0,1.1-0.4,3.5-1.4,7.1
				l-4.1,15.4c-0.8,2.9-1.1,5.2-1.1,6.8c0.1,2.2,1,4.1,2.9,5.8c1.8,1.7,5.5,2.6,8.8,2.6c5.7,0,10.8-2.1,15.3-6.3
				c0.4,1.8,1.2,3.3,2.7,4.7c1.8,1.7,4.4,2.5,7.8,2.5c5.1,0,9.3-1.9,12.5-5.6c3.1-3.5,5.3-6.9,6.8-10.3c0.1-0.3-0.1-0.6-0.4-0.6
				L62.2,309.2L62.2,309.2z"/>
			<path fill="#00AFAA" d="M53,265.5L53,265.5c-2-2-2.8-4.9-2.1-7.7c0.7-2.7,2.9-4.9,5.6-5.6c2.7-0.7,5.7,0,7.7,2
				c2,2,2.8,4.9,2.1,7.7c-0.7,2.7-2.9,4.9-5.6,5.6C58,268.3,55,267.5,53,265.5"/>
		</g>
	</g>
	<g>
		<path fill="#C4A11C" d="M75.4,276.2h7.4l-0.3,1.1h-3.1l-2.1,7.8H76l2.1-7.8H75L75.4,276.2z"/>
		<path fill="#C4A11C" d="M91,278.9l-3.9,3.2h-0.3l-2.1-3.2l-1.7,6.2h-1.2l2.4-8.9h0.3l2.9,4.3l5.2-4.3H93l-2.4,8.9h-1.2L91,278.9z"
			/>
	</g>
</g>
</svg>
